<mxfile host="app.diagrams.net" modified="2023-04-13T07:30:31.765Z" agent="Mozilla/5.0 (Windows NT 10.0; Win64; x64) AppleWebKit/537.36 (KHTML, like Gecko) Chrome/114.0.0.0 Safari/537.36 Edg/114.0.0.0" etag="Ruc8KLY8DVRJQlVxkMmi" version="21.1.7" type="github">
  <diagram name="Page-1" id="y00TK-j6bm-nqAyX7QKQ">
    <mxGraphModel dx="831" dy="809" grid="1" gridSize="10" guides="1" tooltips="1" connect="1" arrows="1" fold="1" page="1" pageScale="1" pageWidth="827" pageHeight="1169" math="0" shadow="0">
      <root>
        <mxCell id="0" />
        <mxCell id="1" parent="0" />
        <mxCell id="wLO2QBgzgp5diKE-0Crk-11" style="edgeStyle=orthogonalEdgeStyle;rounded=0;orthogonalLoop=1;jettySize=auto;html=1;exitX=0.5;exitY=1;exitDx=0;exitDy=0;entryX=0.5;entryY=0;entryDx=0;entryDy=0;" parent="1" source="wLO2QBgzgp5diKE-0Crk-9" target="wLO2QBgzgp5diKE-0Crk-10" edge="1">
          <mxGeometry relative="1" as="geometry" />
        </mxCell>
        <mxCell id="wLO2QBgzgp5diKE-0Crk-9" value="开始" style="rounded=1;whiteSpace=wrap;html=1;" parent="1" vertex="1">
          <mxGeometry x="320" y="420" width="120" height="50" as="geometry" />
        </mxCell>
        <mxCell id="bIvuIR_Mg-kvNPsUriO_-6" style="edgeStyle=orthogonalEdgeStyle;rounded=0;orthogonalLoop=1;jettySize=auto;html=1;exitX=0.5;exitY=1;exitDx=0;exitDy=0;entryX=0.5;entryY=0;entryDx=0;entryDy=0;" parent="1" source="wLO2QBgzgp5diKE-0Crk-10" target="bIvuIR_Mg-kvNPsUriO_-1" edge="1">
          <mxGeometry relative="1" as="geometry">
            <mxPoint x="380" y="585" as="targetPoint" />
          </mxGeometry>
        </mxCell>
        <mxCell id="wLO2QBgzgp5diKE-0Crk-10" value="进入榜单管理" style="rounded=0;whiteSpace=wrap;html=1;" parent="1" vertex="1">
          <mxGeometry x="320" y="500" width="120" height="50" as="geometry" />
        </mxCell>
        <mxCell id="gYr2XEztgCtZrJ-EDKs8-1" style="edgeStyle=orthogonalEdgeStyle;rounded=0;orthogonalLoop=1;jettySize=auto;html=1;exitX=0.5;exitY=1;exitDx=0;exitDy=0;entryX=0.5;entryY=0;entryDx=0;entryDy=0;" edge="1" parent="1" source="bIvuIR_Mg-kvNPsUriO_-1" target="bIvuIR_Mg-kvNPsUriO_-9">
          <mxGeometry relative="1" as="geometry" />
        </mxCell>
        <mxCell id="bIvuIR_Mg-kvNPsUriO_-1" value="根据相应想定进行&lt;br&gt;配置" style="rounded=0;whiteSpace=wrap;html=1;" parent="1" vertex="1">
          <mxGeometry x="320" y="585" width="120" height="50" as="geometry" />
        </mxCell>
        <mxCell id="bIvuIR_Mg-kvNPsUriO_-13" style="edgeStyle=orthogonalEdgeStyle;rounded=0;orthogonalLoop=1;jettySize=auto;html=1;exitX=0.5;exitY=1;exitDx=0;exitDy=0;entryX=0.5;entryY=0;entryDx=0;entryDy=0;" parent="1" source="bIvuIR_Mg-kvNPsUriO_-9" target="bIvuIR_Mg-kvNPsUriO_-12" edge="1">
          <mxGeometry relative="1" as="geometry" />
        </mxCell>
        <mxCell id="bIvuIR_Mg-kvNPsUriO_-9" value="返回相应环境下&lt;br&gt;Top 排名模型" style="rounded=0;whiteSpace=wrap;html=1;" parent="1" vertex="1">
          <mxGeometry x="320" y="670" width="120" height="50" as="geometry" />
        </mxCell>
        <mxCell id="bIvuIR_Mg-kvNPsUriO_-12" value="结束" style="rounded=1;whiteSpace=wrap;html=1;" parent="1" vertex="1">
          <mxGeometry x="320" y="750" width="120" height="60" as="geometry" />
        </mxCell>
        <mxCell id="bIvuIR_Mg-kvNPsUriO_-14" style="edgeStyle=orthogonalEdgeStyle;rounded=0;orthogonalLoop=1;jettySize=auto;html=1;exitX=0.5;exitY=1;exitDx=0;exitDy=0;" parent="1" source="bIvuIR_Mg-kvNPsUriO_-12" target="bIvuIR_Mg-kvNPsUriO_-12" edge="1">
          <mxGeometry relative="1" as="geometry" />
        </mxCell>
      </root>
    </mxGraphModel>
  </diagram>
</mxfile>
